PathFileType	4	(X/Y/Z)	Patient4_TMGait_0pt4_03_right_03.trc.trc
DataRate	CameraRate	NumFrames	NumMarkers	Units	OrigDataRate	OrigDataStartFrame	OrigNumFrames
73.684210526316	73.684210526316	6	33	mm	73.684210526316	106	       141
Frame#	Time	Sacral			L.Shoulder			Chest			R.Shoulder			Neck			R.ASIS			L.ASIS			R.Thigh.Superior			R.Thigh.Lateral			R.Thigh.Inferior			R.Patella			L.Thigh.Superior			L.Thigh.Lateral			L.Thigh.Inferior			L.Patella			L.Shank.Superior			L.Shank.Lateral			L.Shank.Inferior			R.Shank.Superior			R.Shank.Lateral			R.Shank.Inferior			R.Heel			R.Midfoot.Superior			R.Midfoot.Lateral			R.Toe			L.Heel			L.Midfoot.Lateral			L.Midfoot.Superior			L.Toe			L.Elbow			L.Wrist			R.Elbow			R.Wrist			
		X1	Y1	Z1	X2	Y2	Z2	X3	Y3	Z3	X4	Y4	Z4	X5	Y5	Z5	X6	Y6	Z6	X7	Y7	Z7	X8	Y8	Z8	X9	Y9	Z9	X10	Y10	Z10	X11	Y11	Z11	X12	Y12	Z12	X13	Y13	Z13	X14	Y14	Z14	X15	Y15	Z15	X16	Y16	Z16	X17	Y17	Z17	X18	Y18	Z18	X19	Y19	Z19	X20	Y20	Z20	X21	Y21	Z21	X22	Y22	Z22	X23	Y23	Z23	X24	Y24	Z24	X25	Y25	Z25	X26	Y26	Z26	X27	Y27	Z27	X28	Y28	Z28	X29	Y29	Z29	X30	Y30	Z30	X31	Y31	Z31	X32	Y32	Z32	X33	Y33	Z33	

106	4.225000000000	791.861329703814	1011.174062167670	414.091204962355	991.656725135676	1443.132338862757	240.211114622158	1071.838105233967	1376.646500064158	414.839047371630	962.378953823523	1447.549394824864	575.354941225467	949.711997207083	1504.115354382482	395.470029883840	1012.055467272397	960.755552584001	552.330705133055	1020.127867512008	968.262049256784	277.185494362829	1100.871024311844	791.471708620973	531.493356973878	1062.586353279984	670.998031997600	608.749308606849	1156.372844122025	631.197698802459	535.605102270991	1179.080655482702	522.535666099132	564.895504008471	1052.710657666419	747.674600086549	305.250172957277	953.881870448894	637.690087282890	244.307630551684	1032.721689510675	555.212430137493	305.796619889027	1027.938520339666	487.531117862349	316.139324954377	999.793658084246	416.725126439727	308.522664657072	905.651561945206	304.254942631401	259.823097208661	955.589539279794	192.257007732197	331.570154203429	1110.015253815085	442.722671567004	573.237112923909	992.199825022217	392.722172361715	632.943056342956	991.403120654034	280.305268357604	589.069648588984	800.356356211015	201.074815035922	562.847021341244	970.915968026375	150.018991198481	601.027879320477	862.170840891661	140.778925627221	633.177515757958	1043.363908715177	40.928587269014	622.872733761089	827.527955638806	39.201313081141	383.361495236284	895.886059522828	34.733231522638	297.595785910409	981.076368509458	95.590756152260	319.655250436029	1107.868357028674	41.837063365205	282.911654180229	1083.045287486595	1127.109460915913	80.565590154483	1328.085304376969	1032.419597216196	81.702089194796	840.170506548444	1118.094172340388	673.817638154680	840.018160923083	856.000169163271	678.818672256587	
107	4.238571428571	791.050661194796	1011.907303596724	412.779882641294	993.488111532834	1443.262977722166	239.843359430344	1072.013255174419	1376.635908752181	415.111012420722	961.516089670391	1448.060323131086	574.641804903299	950.109880582777	1504.319709252360	394.856126503232	1010.459993189631	961.271465752505	552.201283074331	1019.971573053207	968.255720401500	277.087321405383	1099.705856381465	792.860088213107	531.245959678989	1062.547190841883	672.254295780575	608.805749073522	1155.891430935936	632.816472876520	535.185183316897	1180.067334530746	525.491124384601	564.775056439236	1049.766789008035	746.794932209792	305.933431697811	949.961949179380	637.923656896626	243.945027549963	1027.284262263424	554.620949473899	305.901125091762	1021.653660758631	487.302068297308	316.107006690589	993.756344726847	416.849120328507	308.287367941350	899.712632869770	304.287191621207	259.518655988488	949.849605953616	192.408859639012	331.454344817358	1113.842392139500	444.029800895163	573.413590577935	998.644957828336	389.090561252164	633.603526029917	1002.534361164637	276.661053327432	589.796099738542	814.969128979424	188.853875872742	564.350049027888	987.709308036848	145.869840050566	602.003335043397	879.713318411083	131.778038884295	634.643589773015	1065.203005491694	40.597273218555	624.097221852611	821.984759494499	39.173613724292	383.351030870405	890.376477532486	34.690677491159	297.567000064221	975.567811079564	95.587125616066	319.610019425203	1102.365383340886	41.868496382533	282.914754137903	1085.897148965164	1128.026881168042	80.026395636758	1332.898432352034	1039.036355242851	81.804453452178	832.605451024122	1121.802552750452	672.797817424765	827.762592599339	859.827959881665	677.205809192268	
108	4.252142857143	790.265727595538	1012.514903365719	411.589586227924	995.361795080376	1443.173817023121	239.650232748241	1072.284899914777	1376.433651699839	415.534593689808	960.810924249003	1448.397858550627	574.114908782647	950.598332098732	1504.359951037744	394.401341029081	1008.865246097685	961.527546237615	552.244527304926	1019.832974073754	968.100509652732	277.154292398349	1098.176554834062	793.587790834157	531.197041885282	1061.716116413003	672.926986792915	608.968127891133	1154.516748765735	633.619911782134	534.914334999080	1179.975810079226	527.878968921887	564.674696402135	1046.846751226607	745.862525966298	306.632091848505	946.076692510910	638.117495405711	243.575462245060	1021.855170158106	554.007520557084	306.005009789590	1015.406155753059	487.059210667877	316.039790250463	987.747961388451	416.949573904124	308.051092825660	893.815238264363	304.293261286122	259.213462765166	944.120093406414	192.535746567516	331.339006152849	1116.977766910090	444.857632601110	573.676351510130	1005.080292295213	384.653997246818	634.621673252548	1014.031230015133	272.472739206907	590.800207647965	830.806971592775	175.472933188289	566.403408460397	1005.455354758220	141.433308131001	603.311964553818	898.587016302455	122.167085075563	636.651285688246	1088.237770471699	40.563109933642	625.726807469844	816.454223819855	39.140731310807	383.343043602973	884.867420785081	34.640459325732	297.541711441464	970.054689858373	95.580784337737	319.574212445057	1096.863773013629	41.900415685129	282.921945204112	1088.322911809351	1128.517419577547	79.682405868145	1336.867053061575	1044.434064491352	82.122023552240	825.891588465551	1125.188794710647	671.994239170838	817.083708023809	863.336905898625	675.837742461277	
109	4.265714285714	789.522171459637	1012.996978923704	410.532974354445	997.243217941048	1442.877936959564	239.639544530016	1072.645897111486	1376.048557569937	416.108249531689	960.268980307178	1448.558154735776	573.789995586291	951.171639866071	1504.242216753159	394.123512432685	1007.294185316676	961.525451302120	552.457596003840	1019.708667426161	967.803787615323	277.378928005586	1096.259093523677	793.614783801463	531.338777002411	1060.005171090841	672.988220102090	609.225623356291	1152.198108889896	633.574753576143	534.810001194335	1178.738312057204	529.654846461341	564.553330099275	1044.004918664785	744.886869863936	307.307760723693	942.267975204872	638.263926133950	243.220914544122	1016.514551224529	553.372962017659	306.106951192939	1009.294047182689	486.793045635824	315.943057743757	981.840192847548	417.015739987409	307.824991564371	888.004110519946	304.283098699384	258.918208438418	938.424208179400	192.629442684646	331.224522617913	1119.361558023323	445.237441111938	573.978869895178	1011.491156612779	379.550423081588	635.952653792568	1025.815172051416	267.943324323227	592.007949926335	847.886899611017	161.266653285543	568.918112982135	1024.033951917446	136.987905716969	604.848999619956	918.731297038368	112.286623631464	639.100650917619	1112.239497169964	41.130165289036	627.631561934291	810.938768026509	39.108600205102	383.332896213198	879.360224893670	34.585782179264	297.518036868398	964.539045009532	95.570584523234	319.544600523523	1091.364554182152	41.927561020369	282.931233677784	1090.338181568749	1128.596486677934	79.546108895929	1340.042118471524	1048.552164763727	82.638893694892	820.060749083163	1128.150082268515	671.350412194612	807.940845375131	866.398365549606	674.752043039375	
110	4.279285714286	788.842893665026	1013.359671081833	409.627514359194	999.097064881246	1442.401465904246	239.818012183627	1073.087234960705	1375.498851909070	416.827615809526	959.895695314420	1448.546129446944	573.680333203871	951.818473773174	1503.980263107500	394.040735478124	1005.778531360623	961.277435782921	552.835444667325	1019.600084033009	967.381969055005	277.749774194652	1093.939815215495	792.917976037916	531.672960657216	1057.345681602929	672.431438834233	609.576419442027	1148.905690897308	632.673015737330	534.891548917240	1176.309337302458	530.793341658878	564.378806409608	1041.286322449458	743.880336951245	307.938303160335	938.576155719843	638.359450424351	242.907241868316	1011.338631859359	552.719721219555	306.209615097459	1003.407421851525	486.494531053797	315.825360159253	976.098374474549	417.038952656133	307.621048109925	882.317085673356	304.268610804185	258.646058448274	932.783206869105	192.684408235920	331.112438161760	1120.939660935435	445.215506098781	574.279544453761	1017.825436819046	373.936612634376	637.523759643044	1037.768376065142	263.282151868651	593.324933753642	866.147194419696	146.592973494923	571.746679326600	1043.271773409304	132.800462639104	606.491044767154	940.001131851743	102.467191405614	641.839682641909	1136.921151018649	42.561791515329	629.657523937100	805.439811478274	39.082779485443	383.317330133424	873.856058935193	34.530604609667	297.494452470430	959.023897479648	95.556153719264	319.517569464723	1085.868410997420	41.945670955036	282.940840547463	1091.949144698273	1128.290446768956	79.638309508679	1342.464606767492	1051.348810696137	83.343986089320	815.136440747077	1130.607852098067	670.835365525706	800.316117716353	868.922585899728	673.974082285829	
111	4.292857142857	788.256659567300	1013.608996919682	408.895760010164	1000.887307787879	1441.777867272774	240.189977718352	1073.597073620061	1374.808464316415	417.685369813981	959.694354996894	1448.372589407265	573.795486093556	952.521099846547	1503.591705787021	394.169277756773	1004.358141812390	960.802680068634	553.371637437572	1019.514725016888	966.857104351210	278.253295452589	1091.223558593017	791.494286012719	532.210431862906	1053.708415125682	671.272312335371	610.026865924335	1144.645436341644	630.935245458546	535.174199313520	1172.684185716982	531.289977003609	564.130621238391	1038.727242082209	742.855943107198	308.517154703814	935.040413236587	638.403535438719	242.660983270303	1006.396586683442	552.050764553250	306.318783237347	997.824101595465	486.154868046482	315.697737207395	970.578977261991	417.011875232434	307.451191999989	876.784570099964	304.261716030809	258.411564187096	927.215932260993	192.697490062107	331.005442436970	1121.671818599730	444.846832159076	574.545608558575	1023.987862874100	367.981529563883	639.235017972202	1049.725760871007	258.690375511381	594.644129482236	885.419417522257	131.829098834896	574.690450595180	1062.924643171859	129.101031205194	608.106894783073	962.139794996184	93.013207277321	644.674361909480	1161.916787149749	45.034167516480	631.640427647885	799.957559538310	39.068139025453	383.294639756193	868.355961882069	34.479168532842	297.470012617721	953.513305135661	95.537843963838	319.489678451455	1080.375707091532	41.952089233839	282.949158843493	1093.154464309952	1127.631960397034	79.984370001307	1344.164892888222	1052.798086139294	84.229952098432	811.136412358710	1132.507488442034	670.446630378389	794.213122103934	870.852240343675	673.517769175661	
